<svg width="18" height="15" viewBox="0 0 18 15" fill="none" xmlns="http://www.w3.org/2000/svg">
<path d="M10.0861 6.52045C10.923 7.35729 10.923 8.71406 10.0861 9.5509C9.24928 10.3877 7.89251 10.3877 7.05567 9.5509C6.21883 8.71406 6.21883 7.35729 7.05567 6.52045C7.89251 5.68361 9.24928 5.68361 10.0861 6.52045Z"/>
<path d="M14.9995 2.14286H13.5189L12.447 0H4.6943L3.62338 2.14391L2.14493 2.14655C0.966269 2.14865 0.00677332 3.10917 0.00575557 4.28836L0 12.8566C0 14.0384 0.96104 15 2.14286 15H14.9995C16.1813 15 17.1423 14.039 17.1423 12.8571V4.28569C17.1423 3.1039 16.1813 2.14286 14.9995 2.14286ZM8.57089 12.3214C6.20777 12.3214 4.28516 10.3988 4.28516 8.03569C4.28516 5.67257 6.20777 3.74996 8.57089 3.74996C10.934 3.74996 12.8566 5.67257 12.8566 8.03569C12.8566 10.3988 10.934 12.3214 8.57089 12.3214Z"/>
</svg>
